<mxfile host="app.diagrams.net" modified="2023-11-21T22:04:07.792Z" agent="Mozilla/5.0 (Windows NT 10.0; Win64; x64) AppleWebKit/537.36 (KHTML, like Gecko) Chrome/119.0.0.0 Safari/537.36" etag="CLVAxqDhowWPniDNAEaL" version="22.1.3" type="github">
  <diagram name="Página-1" id="49RAOYmFBgVMko257K_u">
    <mxGraphModel dx="1434" dy="750" grid="1" gridSize="10" guides="1" tooltips="1" connect="1" arrows="1" fold="1" page="1" pageScale="1" pageWidth="827" pageHeight="1169" math="0" shadow="0">
      <root>
        <mxCell id="0" />
        <mxCell id="1" parent="0" />
        <mxCell id="MZ8Y8v89f2wvO8BOpAdl-2" value="Aparte de las direcciones de los clientes, me interesa grabar nombre y apellidos del cliente y su NIF en caso de que pida facturas (no es obligatorio).&lt;br&gt;Cuando un cliente quiere una serie de productos de la tienda web puede buscarlo por categorías o directamente poniendo su nombre.&lt;br&gt;Cada producto tiene un stock concreto, no podemos comprar mas productos de los que haya en stock, algunos de los productos tienen un máximo de compra por cliente y día.&lt;br&gt;Los precios de los productos varían contínuamente.&lt;br&gt;No todos los productos tienes un 21% de IVA, algunos llevan el 10% aunque podría varias e incluso aplicarse otros tipos de IVA (depende de las decisiones del gobierno).&lt;br&gt;Para seleccionar de manera mas sencilla un producto, genero un código único que puede usar el cliente para futuras compras.&lt;br&gt;Para algunos de los productos aparecen unidades con &quot;descuentos especiales&quot; que se pueden comprar con un descuento adicional pero que tienen alguna pequeña tara, para esas unidades habrá un stock concreto.&lt;br&gt;En un mismo pedido podemos mezclar todo tipos de productos e incluso podemos tener productos con descuento y sin él.&lt;br&gt;Cada pedido tiene un número único, podremos pedir una factura si así lo necesitáramos pero sólo se emite si la solicitas (eso es poco legal aquí en España pero Pámazon es grande).&lt;br&gt;En el pedido/factura se detallarán los gastos de envío, estos gastos llevarán el 21% de IVA (salvo que cambie posteriormente)&lt;br&gt;NOTA: Para no complicar mucho más el modelo obviamente detalles muy importantes como el seguimiento del envío etc etc" style="text;html=1;strokeColor=none;fillColor=none;align=left;verticalAlign=middle;whiteSpace=wrap;rounded=0;fontFamily=Verdana;fontSize=13;" vertex="1" parent="1">
          <mxGeometry x="34" y="40" width="760" height="330" as="geometry" />
        </mxCell>
      </root>
    </mxGraphModel>
  </diagram>
</mxfile>
